<?xml version="1.0" standalone="no"?>
<!DOCTYPE svg PUBLIC "-//W3C//DTD SVG 1.1//EN" "http://www.w3.org/Graphics/SVG/1.1/DTD/svg11.dtd" >
<svg xmlns="http://www.w3.org/2000/svg">
<metadata>
This is a custom SVG webfont generated by Font Squirrel.
Copyright   : Copyright 1995 Monotype Imaging Inc All rights reserved
Foundry URL : httpwwwmonotypeimagingcom
</metadata>
<defs>
<font id="webfontTPbfVNcy" horiz-adv-x="1021" >
<font-face units-per-em="2048" ascent="1432" descent="-616" />
<missing-glyph horiz-adv-x="636" />
<glyph unicode=" "  horiz-adv-x="636" />
<glyph unicode="&#x09;" horiz-adv-x="636" />
<glyph unicode="&#xa0;" horiz-adv-x="636" />
<glyph unicode="!" horiz-adv-x="716" d="M334 1270h270l-72 -873h-229zM565 145q0 -68 -48 -114.5t-116 -46.5q-72 0 -122 50t-48 120q0 66 50.5 111.5t117.5 45.5q70 0 118 -48t48 -118z" />
<glyph unicode="&#x22;" horiz-adv-x="942" d="M543 629l129 545q33 131 149 131q63 0 106.5 -39t43.5 -97q0 -51 -29 -98l-254 -442h-145zM121 629l121 528q14 70 56 109t101 39q61 0 102.5 -40t41.5 -100q0 -55 -27 -100l-254 -436h-141z" />
<glyph unicode="#" d="M877 1012h153l-33 -246h-151l-29 -225h152l-31 -230h-152l-47 -352h-202l45 352h-170l-47 -352h-207l47 352h-162l31 230h162l28 225h-162l31 246h162l37 288h211l-37 -288h168l41 288h198zM614 541l29 225h-170l-31 -225h172z" />
<glyph unicode="$" d="M672 1063l-29 -275q209 -92 290 -183t81 -236q0 -182 -128 -278.5t-329 -96.5l-16 -164h-140l17 160q-59 4 -179 41t-184 69l11 242q72 -41 185.5 -83t186.5 -50l33 297q-209 100 -287 190t-78 215q0 172 117 276.5t334 104.5l14 142h140l-15 -144q131 0 291 -78 l-12 -241q-74 41 -162 66.5t-141 25.5zM506 823l26 242q-158 0 -157 -107q0 -43 29.5 -73.5t101.5 -61.5zM608 467l-26 -260q166 6 166 117q-1 84 -140 143z" />
<glyph unicode="%" horiz-adv-x="1648" d="M739 975q0 -164 -84 -265.5t-219 -101.5q-127 0 -203.5 86t-76.5 230q0 166 83 266t220 100q133 0 206.5 -82.5t73.5 -232.5zM1165 1270h209l-842 -1270h-206zM1563 344q0 -164 -84 -265.5t-219 -101.5q-127 0 -204 86.5t-77 229.5q0 166 83 266t220 100q133 0 207 -82.5 t74 -232.5zM549 977q0 109 -94 108q-49 0 -77 -42t-28 -117q0 -113 90 -113q49 0 79 44t30 120zM1372 346q0 109 -94 109q-49 0 -76.5 -42t-27.5 -118q0 -113 90 -113q49 0 78.5 44t29.5 120z" />
<glyph unicode="&#x26;" horiz-adv-x="1437" d="M969 135q-203 -158 -453 -158q-193 0 -309.5 96.5t-116.5 256.5q0 145 105.5 252.5t250.5 152.5q-125 145 -124 260q0 139 109.5 220t299.5 81q162 0 264.5 -84t102.5 -215q0 -211 -267 -317q27 -35 77 -91l87 -95l37 -39q139 127 209 223l178 -143q-90 -125 -248 -259 q98 -111 285 -276h-352zM834 987q0 53 -33 85t-90 32q-53 0 -86 -31t-31 -80q2 -63 94 -166q146 66 146 160zM827 301l-252 279q-201 -78 -200 -228q0 -66 50 -107.5t126 -41.5q149 0 276 98z" />
<glyph unicode="'" horiz-adv-x="581" d="M164 629l123 542q31 133 153 134q59 0 104.5 -41t45.5 -95q0 -51 -29 -98l-256 -442h-141z" />
<glyph unicode="(" horiz-adv-x="739" d="M762 49l-6 -209q-532 41 -533 684q0 430 133 638t488 247l-8 -211q-100 -27 -170 -91.5t-105 -159.5t-48 -195.5t-13 -227.5q0 -436 262 -475z" />
<glyph unicode=")" horiz-adv-x="739" d="M55 1200l6 209q262 -23 398.5 -186.5t136.5 -497.5q0 -430 -133 -638t-488 -247l7 211q102 25 172.5 89.5t104.5 160.5t47 195.5t13 228.5q0 436 -264 475z" />
<glyph unicode="*" horiz-adv-x="813" d="M776 1149l47 -105l-143 -75q-43 -23 -129 -41q55 -8 121 -49l116 -74l-71 -96l-156 102q-35 23 -59 57q6 -25 9 -59.5t3 -54.5v-23l-8 -131h-119l8 135q4 72 33 135q-45 -47 -117 -84l-133 -69l-47 106l137 70q61 31 133 45q-80 23 -122 53l-117 80l71 96l115 -71 q45 -27 94 -90q-10 70 -8 135l6 131h121l-8 -131q-4 -74 -31 -140q61 51 109 74z" />
<glyph unicode="+" d="M1059 674v-242h-391v-436h-246v436h-379v242h379v387h246v-387h391z" />
<glyph unicode="," horiz-adv-x="636" d="M307 -266l-178 61q76 70 110.5 117t34.5 96q0 72 -36.5 123t-36.5 88q0 45 36.5 72.5t98.5 27.5q88 0 146.5 -59t58.5 -149q0 -109 -51.5 -194t-182.5 -183z" />
<glyph unicode="-" horiz-adv-x="534" d="M526 567v-205h-465v205h465z" />
<glyph unicode="." horiz-adv-x="636" d="M494 131q0 -66 -51.5 -114t-120.5 -48q-68 0 -115 49.5t-47 117t48 114.5t117.5 47t119 -48t49.5 -118z" />
<glyph unicode="/" horiz-adv-x="673" d="M455 1405h233l-399 -1563h-238z" />
<glyph unicode="0" d="M999 719q0 -336 -128 -540t-365 -204q-203 0 -301.5 143.5t-98.5 440.5q0 360 121 547.5t353 187.5q419 0 419 -575zM715 772q0 260 -146 260q-186 0 -186 -504q0 -158 33 -222t114 -64q185 0 185 530z" />
<glyph unicode="1" d="M508 1270h260l-76 -1270h-272l65 977q-100 -100 -159 -146l-123 185z" />
<glyph unicode="2" d="M293 856l-164 152q82 150 185.5 217t287.5 67q182 0 289.5 -94t107.5 -254q0 -170 -141 -342t-395 -381h483v-221h-874v156q436 444 508 526q111 145 116 227q0 61 -45 105.5t-108 44.5q-141 0 -250 -203z" />
<glyph unicode="3" d="M309 543l6 223q53 -6 95 -6q281 0 280 174q0 61 -45 97t-121 36q-127 0 -272 -133l-96 190q150 168 446 168q174 0 276.5 -86t102.5 -233q0 -115 -60.5 -191.5t-191.5 -128.5q244 -47 244 -301q0 -178 -124 -277.5t-345 -99.5q-162 0 -265.5 45.5t-199.5 159.5l135 168 q133 -158 297 -158q90 0 147.5 48.5t57.5 123.5q0 80 -72 131.5t-207 51.5q-55 0 -88 -2z" />
<glyph unicode="4" d="M879 528h151l-10 -215h-152l-16 -313h-250l16 313h-540l10 211l471 746h293l-465 -742h242l18 271h246z" />
<glyph unicode="5" d="M457 1049l-25 -275q88 41 174 41q170 0 271.5 -105.5t101.5 -285.5q0 -211 -133 -333t-365 -122q-285 0 -448 181l114 184q166 -150 316 -150q100 0 165.5 60.5t65.5 150.5q0 82 -51 134.5t-133 52.5q-98 0 -201 -84l-143 96l51 676h756l-12 -221h-504z" />
<glyph unicode="6" d="M565 1270h336q-176 -170 -257 -268.5t-175 -258.5q96 55 193 56q152 0 248 -103.5t96 -269.5q0 -199 -131.5 -324t-337.5 -125q-205 0 -325 119t-120 322q0 215 139 439.5t334 412.5zM721 406q0 72 -39 115.5t-102 43.5q-94 0 -181 -80q-10 -53 -10 -88q0 -78 45 -126 t119 -48q72 0 120 51.5t48 131.5z" />
<glyph unicode="7" d="M147 1270h891l-12 -199l-561 -1071h-301l549 1049h-580z" />
<glyph unicode="8" d="M135 958q0 162 117 250t348 88q190 0 302 -78.5t112 -216.5q0 -104 -61.5 -182t-194.5 -147q129 -57 188.5 -139t59.5 -201q0 -164 -128 -261.5t-348 -97.5q-213 0 -338.5 92.5t-125.5 247.5q0 121 67.5 203t218.5 146q-123 68 -170 133t-47 163zM729 969q0 57 -43 90 t-117 33q-68 0 -112.5 -37t-44.5 -94q0 -90 157 -162q160 61 160 170zM729 340q0 94 -194 176q-96 -33 -137.5 -73t-41.5 -101q0 -68 49.5 -105.5t135.5 -37.5q84 0 136 39t52 102z" />
<glyph unicode="9" d="M616 0h-321q182 252 321 514q-78 -35 -131 -35q-180 0 -279.5 108.5t-99.5 264.5q0 197 133.5 317.5t350.5 120.5q201 0 314.5 -102.5t113.5 -284.5q0 -170 -108 -410.5t-294 -492.5zM727 903q0 70 -40 109t-112 39q-82 0 -130 -49.5t-48 -133.5q0 -70 39 -109.5 t109 -39.5q80 0 131 51t51 133z" />
<glyph unicode=":" horiz-adv-x="636" d="M543 764q0 -68 -50.5 -115t-121.5 -47q-68 0 -115 47t-47 117q0 68 50 116t120 48q68 0 116 -48t48 -118zM506 141q0 -68 -50 -113.5t-122 -45.5q-68 0 -115 48t-47 115.5t48 115.5t118 48t119 -49t49 -119z" />
<glyph unicode=";" horiz-adv-x="636" d="M559 739.5q0 -69.5 -49 -118t-121 -48.5q-70 0 -117 49.5t-47 120.5q0 70 48.5 118t118 48t118.5 -50t49 -119.5zM283 -266l-179 61q145 133 146 242q0 39 -37 89t-37 93q0 45 38 72.5t99 27.5q86 0 145.5 -60t59.5 -148q0 -154 -115 -275q-46 -47 -120 -102z" />
<glyph unicode="&#x3c;" d="M1061 1055v-246l-678 -254l678 -252v-240l-1002 388v206z" />
<glyph unicode="=" d="M1059 891v-229h-1018v229h1018zM1059 524v-229h-1018v229h1018z" />
<glyph unicode="&#x3e;" d="M1063 657v-206l-1002 -388v240l676 252l-676 254v246z" />
<glyph unicode="?" horiz-adv-x="864" d="M160 1004l-21 223q164 70 324 69q201 0 318.5 -99t117.5 -269q0 -150 -98.5 -244t-276.5 -117l-14 -178h-254l25 387l73 -4q260 0 260 152q0 63 -53 105t-133 42q-104 1 -268 -67zM539 145q0 -68 -48.5 -114.5t-118 -46.5t-118.5 50t-49 120q0 66 49 111.5t118.5 45.5 t118 -48t48.5 -118z" />
<glyph unicode="@" horiz-adv-x="1648" d="M872 1004q68 0 138 -35l4 39h176q-74 -500 -74 -506q0 -57 37 -95t94 -38q96 0 155.5 84t59.5 219q0 252 -164.5 411.5t-427.5 159.5q-264 0 -436 -167t-172 -423q0 -254 182.5 -430t446.5 -176q121 0 192.5 20.5t182.5 86.5l45 -80q-123 -82 -211 -106.5t-260 -24.5 q-324 -2 -540 198.5t-216 501.5q0 305 218 506t550 201q328 0 529.5 -180.5t201.5 -473.5q0 -186 -101.5 -306t-256.5 -120q-88 0 -156 41t-94 111q-90 -139 -242 -139q-106 0 -173.5 77.5t-67.5 202.5q0 182 111 311.5t269 129.5zM965 616l34 271q-53 35 -102 35 q-90 0 -152.5 -97.5t-62.5 -238.5q0 -82 33 -130t90 -48t102.5 59t57.5 149z" />
<glyph unicode="A" horiz-adv-x="1284" d="M870 1270l414 -1270h-313l-111 348h-391l-156 -348h-313l586 1270h284zM553 553h252l-109 338z" />
<glyph unicode="B" horiz-adv-x="1247" d="M166 12l78 1270q121 8 372 8q268 0 401.5 -73.5t133.5 -231.5q0 -203 -225 -295q270 -72 270 -323q0 -197 -157.5 -288t-497.5 -91q-189 -1 -375 24zM537 1071l-19 -280q55 -2 92 -3q96 0 160 42t64 114t-53.5 101.5t-159.5 29.5q-47 0 -84 -4zM504 555l-19 -328 q80 -6 105 -6q266 0 266 168q0 82 -71.5 124t-186.5 42h-94z" />
<glyph unicode="C" horiz-adv-x="1187" d="M1065 399l115 -196q-115 -121 -234 -175.5t-270 -54.5q-258 0 -400.5 161t-142.5 450q0 328 168 520t455 192q141 0 259 -59t189 -158l-137 -184q-125 156 -291 156q-158 0 -249 -120t-91 -327q0 -377 291 -377q90 0 168 39t170 133z" />
<glyph unicode="D" horiz-adv-x="1421" d="M164 12l78 1262q147 18 358 18q741 0 741 -600q0 -324 -201.5 -511t-631.5 -187q-201 0 -344 18zM543 1055l-51 -822q37 -6 71 -6q215 0 325.5 117t110.5 346q0 190 -89 279.5t-281 89.5q-10 0 -20.5 -1t-29 -2t-36.5 -1z" />
<glyph unicode="E" horiz-adv-x="972" d="M238 1270h755l-8 -230h-465l-20 -272h407l-10 -229h-410l-20 -318h463l-6 -221h-762z" />
<glyph unicode="F" horiz-adv-x="970" d="M236 1270h755l-8 -215h-465l-20 -334h401l-4 -215h-410l-32 -506h-291z" />
<glyph unicode="G" horiz-adv-x="1366" d="M754 688h610l-8 -205h-154q6 -41 6 -55q0 -211 -137 -332t-375 -121q-274 0 -417.5 156t-143.5 453q0 326 181.5 519t486.5 193q283 0 450 -194l-143 -184q-129 154 -305 153q-158 0 -254 -132t-96 -351q0 -188 65.5 -287.5t188.5 -99.5q98 0 160.5 61.5t62.5 159.5 q0 37 -2 61h-187z" />
<glyph unicode="H" horiz-adv-x="1468" d="M1090 1270h307l-90 -1270h-310l41 539h-520l-41 -539h-315l94 1270h313l-43 -516h523z" />
<glyph unicode="I" horiz-adv-x="552" d="M213 1270h295l-82 -1270h-299z" />
<glyph unicode="J" horiz-adv-x="1044" d="M676 1270h297l-62 -914q-25 -383 -430 -383q-197 0 -298 89.5t-101 261.5q0 68 10 143h268q-10 -76 -10 -137q0 -66 32 -104t85 -38q66 0 100.5 49.5t44.5 184.5z" />
<glyph unicode="K" horiz-adv-x="1275" d="M954 1270h375l-500 -604l492 -666h-385l-418 590l-41 -590h-315l90 1270h319l-43 -553z" />
<glyph unicode="L" horiz-adv-x="1148" d="M494 215h569l-10 -215h-891l88 1270h323z" />
<glyph unicode="M" horiz-adv-x="1718" d="M1319 1270h319l-88 -1270h-309l70 756l-312 -463h-254l-206 424l-66 -717h-307l84 1270h328l313 -641z" />
<glyph unicode="N" horiz-adv-x="1484" d="M1118 1270h287l-84 -1270h-311l-400 659l-112 205q-4 -203 -9 -276l-38 -588h-287l82 1270h309l397 -662l113 -192q4 166 10 254z" />
<glyph unicode="O" horiz-adv-x="1511" d="M1430 705q0 -358 -176.5 -543t-499.5 -185q-279 0 -430.5 156t-151.5 442q0 332 182.5 533t497.5 201q279 0 428.5 -161.5t149.5 -442.5zM1096 698q0 168 -70 261.5t-197 93.5q-150 0 -236.5 -131t-86.5 -357q0 -170 69.5 -262t196.5 -92q150 0 237 124.5t87 362.5z" />
<glyph unicode="P" horiz-adv-x="1224" d="M162 0l84 1268q240 8 334 8q309 0 457.5 -81t148.5 -290q0 -176 -136.5 -273t-381.5 -97q-109 0 -156 4l-37 -539h-313zM551 1059l-23 -293q35 -6 78 -6q127 0 186.5 39t59.5 125q0 66 -58.5 101.5t-162.5 35.5q-45 0 -80 -2z" />
<glyph unicode="Q" horiz-adv-x="1509" d="M1141 -195l-162 209q-131 -37 -252 -37q-250 0 -403.5 160t-153.5 420q0 348 183.5 549t500.5 201q281 0 429.5 -151.5t148.5 -444.5q0 -383 -238 -572l147 -184zM899 485l94 -118q51 41 78 141t27 213q0 166 -71 263t-191 97q-139 0 -232.5 -138t-93.5 -345 q0 -176 61.5 -275.5t167.5 -99.5q20 0 62 15l-84 102z" />
<glyph unicode="R" horiz-adv-x="1230" d="M780 580l439 -580h-363l-346 502l-33 -502h-315l86 1264q131 8 356 8q178 0 298 -25.5t181.5 -76t85 -107.5t23.5 -139q0 -147 -115.5 -245.5t-267.5 -98.5h-29zM551 1053l-23 -301q70 -6 84 -7q256 0 256 162q0 78 -57 114t-203 36q-4 0 -57 -4z" />
<glyph unicode="S" horiz-adv-x="1007" d="M59 82l43 225q242 -121 390 -121q72 0 117.5 32t45.5 83q0 27 -12 52.5t-43 53.5l-54 47q-24 19 -76 55l-79 56q-133 98 -188.5 185.5t-55.5 195.5q0 158 117 251t320 93q223 0 395 -78l-23 -249q-197 94 -329 94q-166 0 -166 -115q0 -27 10 -48.5t46 -52t66 -51.5 l107 -75q156 -106 213.5 -187.5t57.5 -189.5q0 -160 -118 -258t-339 -98q-228 0 -445 100z" />
<glyph unicode="T" horiz-adv-x="1005" d="M94 1270h969l-10 -215h-334l-68 -1055h-295l66 1055h-338z" />
<glyph unicode="U" horiz-adv-x="1468" d="M1081 1270h320l-51 -697q-23 -326 -158 -463t-449 -137q-295 0 -428 145q-114 123 -113 366q0 41 3 85l51 701h311l-45 -701q-3 -40 -3 -75q0 -139 45 -202q56 -79 189.5 -79t204 80t82.5 291z" />
<glyph unicode="V" horiz-adv-x="1347" d="M1098 1270h321l-631 -1270h-266l-413 1270h321l262 -881z" />
<glyph unicode="W" horiz-adv-x="2017" d="M1765 1270h324l-516 -1276h-301l-180 749q-16 74 -35 177q-29 -96 -56 -158l-325 -768h-279l-288 1276h321l127 -729l21 -154q35 100 65 172l295 711h305l160 -715q18 -80 43 -207q37 123 65 203z" />
<glyph unicode="X" horiz-adv-x="1261" d="M995 1270h355l-492 -627l408 -643h-353l-249 428l-318 -428h-356l514 645l-391 625h344l235 -408z" />
<glyph unicode="Y" horiz-adv-x="1185" d="M938 1270h338l-485 -678l-43 -592h-312l41 584l-389 686h326l229 -469z" />
<glyph unicode="Z" horiz-adv-x="1105" d="M123 1270h1051l-9 -123l-716 -932h657l-12 -215h-1092l8 115l727 940h-626z" />
<glyph unicode="[" horiz-adv-x="681" d="M334 1407h448l-12 -188h-199l-67 -1188h201l-13 -189h-446z" />
<glyph unicode="\" horiz-adv-x="673" d="M285 1405l403 -1563h-237l-400 1563h234z" />
<glyph unicode="]" horiz-adv-x="681" d="M68 1407h446l-86 -1565h-448l12 187h198l68 1190h-201z" />
<glyph unicode="^" d="M672 1274l385 -696h-260l-250 491l-256 -491h-244l385 696h240z" />
<glyph unicode="_" horiz-adv-x="1024" d="M1024 -168v-182h-1024v182h1024z" />
<glyph unicode="`" horiz-adv-x="624" d="M403 1288l140 -256h-197l-315 256h372z" />
<glyph unicode="a" horiz-adv-x="1161" d="M766 119q-109 -137 -297 -137q-160 0 -248 99t-88 279q0 266 156.5 413t449.5 147q158 0 301 -43q-39 -594 -39 -601q0 -156 23 -276h-244q-2 6 -4 17.5t-6 42t-4 59.5zM754 483l12 179q-68 18 -111 18q-106 0 -175.5 -85t-69.5 -216q0 -72 35.5 -112t99.5 -40 q84 0 142.5 71.5t66.5 184.5z" />
<glyph unicode="b" horiz-adv-x="1161" d="M532 1411l-43 -590q100 102 258 102.5t250.5 -100t92.5 -268.5q0 -258 -146.5 -416.5t-386.5 -158.5q-203 0 -381 83l88 1348h268zM465 434l-14 -178q55 -31 120 -31q106 0 170 73t64 194q0 193 -141 192q-68 0 -128.5 -60.5t-70.5 -189.5z" />
<glyph unicode="c" horiz-adv-x="919" d="M846 287l8 -236q-145 -72 -293 -71q-186 0 -308 112.5t-122 317.5q0 229 130 371.5t366 142.5q147 0 260 -70l-58 -233q-96 63 -186 63q-106 0 -166.5 -69.5t-60.5 -184.5q0 -102 55 -156.5t158 -54.5q106 0 217 68z" />
<glyph unicode="d" horiz-adv-x="1181" d="M801 106q-123 -131 -291 -131q-170 0 -273.5 110t-103.5 294q0 225 144.5 384t347.5 159q78 0 168 -31l34 520h269l-70 -1096q-3 -40 -3 -81q0 -115 21 -234h-233zM774 522l8 137q-63 23 -116 23q-109 0 -178.5 -81t-69.5 -210q0 -76 40 -120t105 -44q127 0 172 103 q33 73 39 192z" />
<glyph unicode="e" horiz-adv-x="1005" d="M862 274l-6 -217q-152 -82 -319 -82q-195 0 -307.5 109t-112.5 301q0 231 146.5 386t365.5 155q152 0 240.5 -71t88.5 -191q0 -141 -140 -230.5t-363 -89.5q-6 0 -25.5 1t-34.5 1q4 -80 49 -123t125 -43q133 0 293 94zM682 639q0 33 -23.5 52.5t-62.5 19.5 q-57 0 -106.5 -50.5t-67.5 -128.5q25 -4 53 -4q94 0 150.5 30t56.5 81z" />
<glyph unicode="f" horiz-adv-x="684" d="M88 901h166q8 287 110.5 405.5t335.5 118.5q102 0 213 -39l-39 -208q-68 33 -141 32q-111 0 -157 -69.5t-50 -239.5h217l-12 -194h-215l-24 -426q-12 -199 -36 -333t-60 -220t-96 -132.5t-129 -62.5t-175 -16q-98 0 -197 28l17 193q76 -16 123 -17q59 0 99 9.5t70.5 39 t48 64.5t31 110.5t19.5 148.5t14 204l25 410h-170z" />
<glyph unicode="g" horiz-adv-x="1155" d="M231 -428l17 221q98 -45 223 -45q135 0 195.5 66.5t72.5 246.5q-59 -49 -114.5 -65t-132.5 -16q-170 0 -265.5 106.5t-95.5 294.5q0 254 162 397.5t465 143.5q145 0 284 -37l-51 -781q-12 -178 -46 -292.5t-100.5 -175t-148.5 -82t-209 -21.5q-152 0 -256 39zM756 516 l10 141q-37 8 -84 9q-127 0 -196.5 -73t-69.5 -200q0 -152 133 -151q100 0 147.5 55t59.5 219z" />
<glyph unicode="h" horiz-adv-x="1175" d="M541 1411l-37 -586q100 102 264 103q117 0 195 -88q70 -80 70 -203q0 -13 -1 -27l-35 -610h-284l37 559v14q0 51 -27 87q-31 42 -88 42t-101.5 -52t-50.5 -148l-30 -502h-277l90 1411h275z" />
<glyph unicode="i" horiz-adv-x="624" d="M555 1174q0 -63 -48 -108.5t-115.5 -45.5t-115 45t-47.5 110.5t48.5 110.5t117.5 45q66 0 113 -45.5t47 -111.5zM231 901h275l-55 -901h-275z" />
<glyph unicode="j" horiz-adv-x="591" d="M541 1174q0 -63 -48.5 -108.5t-115.5 -45.5q-66 0 -113 46t-47 109.5t48 109.5t116 46q66 0 113 -45.5t47 -111.5zM215 901h281l-62 -962q-14 -240 -117.5 -330t-330.5 -90q-102 0 -199 24l14 197q66 -16 111 -16q131 0 185.5 57t64.5 237z" />
<glyph unicode="k" horiz-adv-x="1208" d="M831 901h398l-486 -373l154 -245q74 -119 211 -283h-360q-119 178 -152 231l-123 207l-27 -438h-270l90 1405h271l-54 -799z" />
<glyph unicode="l" horiz-adv-x="636" d="M268 1405h283l-92 -1405h-281z" />
<glyph unicode="m" horiz-adv-x="1765" d="M743 0l33 547q0 8 1 16q0 62 -28 100q-32 42 -90 42q-72 0 -116.5 -57.5t-53.5 -162.5l-36 -485h-277q41 653 41 686q0 113 -29 215h279q16 -61 20 -88q147 117 308 117q76 0 148.5 -36t96.5 -83q123 119 299 119q141 0 216 -86q67 -78 68 -213q0 -15 -1 -31l-33 -600 h-276l35 547v15q0 65 -33 102q-37 41 -96 41q-63 0 -111.5 -60.5t-54.5 -161.5l-31 -483h-279z" />
<glyph unicode="n" horiz-adv-x="1183" d="M489 803q131 125 287 125q125 0 201 -86q68 -78 68 -201q0 -13 -1 -27l-36 -614h-281l39 557v13q0 53 -30 90q-34 42 -91 42q-59 0 -104 -56t-52 -142l-32 -504h-281q39 645 39 659q0 162 -29 242h279q16 -41 24 -98z" />
<glyph unicode="o" horiz-adv-x="1157" d="M1083 477q0 -242 -131 -373t-374 -131q-203 0 -325 124t-122 329q0 236 136 369t370 133q209 0 327.5 -122t118.5 -329zM799 471q0 96 -46 153.5t-130 57.5q-94 0 -147.5 -65.5t-53.5 -188.5q0 -96 46 -152.5t130 -56.5q90 0 145.5 68.5t55.5 183.5z" />
<glyph unicode="p" horiz-adv-x="1173" d="M477 805q125 123 275 123q154 0 247 -103.5t93 -271.5q0 -264 -119 -413.5t-311 -149.5q-70 0 -113 14t-92 55l-33 -524h-277l72 1147q1 19 1 37q0 93 -25 182h266q14 -43 16 -96zM465 422l-8 -131q61 -61 139 -62q94 0 152.5 73t58.5 190q0 86 -37 138t-104 52 q-82 0 -137.5 -73.5t-63.5 -186.5z" />
<glyph unicode="q" horiz-adv-x="1144" d="M680 -467l37 557q-119 -111 -250 -110q-152 0 -244 102t-92 268q0 274 151.5 424t458.5 150q145 0 293 -39l-86 -1352h-268zM756 483l12 179q-55 23 -86 22q-119 0 -189.5 -76t-70.5 -196q0 -82 37 -127t106 -45q175 -1 191 243z" />
<glyph unicode="r" horiz-adv-x="792" d="M463 754q66 90 122 128t132 38q41 0 102 -27l-16 -219q-55 12 -80 12q-117 0 -183.5 -86t-76.5 -246l-23 -354h-264l37 604q5 103 5 150q0 16 -1 25q-2 38 -20 122h249q17 -72 17 -134v-13z" />
<glyph unicode="s" horiz-adv-x="940" d="M102 39l7 225q197 -102 342 -102q104 0 104 63q0 27 -21.5 45.5t-80.5 46.5q-166 78 -238 153t-72 179q0 135 99.5 210t287.5 75q190 0 328 -62l-33 -206q-141 63 -274 63q-109 0 -109 -59q0 -31 19.5 -46.5t120.5 -60.5q150 -70 210 -138.5t60 -162.5 q0 -133 -103.5 -213t-277.5 -80q-226 0 -369 70z" />
<glyph unicode="t" horiz-adv-x="780" d="M510 901h281l-17 -194h-276l-25 -388q-1 -9 0 -17q0 -123 109 -124q70 0 182 62l-12 -205q-96 -61 -250 -62q-160 0 -238 65q-70 58 -70 174q0 12 1 26l32 469h-139l14 194h138l14 227h268z" />
<glyph unicode="u" horiz-adv-x="1175" d="M1059 901l-39 -604q-2 -43 -2 -83q0 -30 1 -58q3 -66 9 -111l6 -45h-223q-8 53 -10 115q-100 -135 -289 -135q-152 0 -239 75.5t-87 214.5q0 20 12.5 144.5t16.5 229.5q1 23 1 49q0 90 -11 208h260q7 -85 7 -159q0 -37 -2 -71q-5 -103 -16.5 -214t-11.5 -115 q0 -137 131 -137q184 0 203 248l31 448h252z" />
<glyph unicode="v" horiz-adv-x="1067" d="M799 901h282l-389 -788q-43 -86 -71.5 -112t-98.5 -26q-61 0 -93 20.5t-56 92.5l-279 813h283l125 -426q31 -96 41 -156q12 35 36.5 86.5t30.5 67.5z" />
<glyph unicode="w" horiz-adv-x="1646" d="M1358 901h291l-349 -819q-25 -57 -58.5 -81t-94.5 -24q-113 0 -141 113l-142 543l-215 -555q-23 -53 -57.5 -77t-96 -24t-92 24t-49.5 85l-237 815h274l96 -373l37 -168l49 148l138 393h333l99 -412q18 -72 28 -127q18 57 41 119z" />
<glyph unicode="x" horiz-adv-x="1028" d="M717 901h317l-303 -436l254 -465h-303l-143 287l-185 -287h-311l340 479l-231 422h303l118 -237z" />
<glyph unicode="y" horiz-adv-x="1144" d="M760 901h264l-53 -895q-16 -272 -133 -371.5t-387 -99.5q-111 0 -226 27l11 200q102 -29 225 -28q45 0 77.5 7t69.5 29.5t60.5 73t29.5 125.5l11 119q-39 -43 -108 -74.5t-146 -31.5q-270 0 -271 301q0 14 11.5 131.5t15.5 222.5q1 23 1 49q0 91 -11 215h264 q5 -67 5 -131q0 -40 -2 -79q-5 -101 -15.5 -217t-10.5 -124q0 -72 26 -100.5t83 -28.5q168 0 182 223z" />
<glyph unicode="z" horiz-adv-x="901" d="M147 901h744l-8 -184l-494 -514q70 3 113 3h19q44 -1 93.5 -4t63.5 -3q94 0 178 18l-10 -207q-123 -16 -387 -16q-295 0 -404 8l11 203l458 502h-385z" />
<glyph unicode="{" horiz-adv-x="753" d="M633 -43l-6 -107h-27h-33q-162 0 -229.5 50.5t-63.5 167.5q4 45 27 157q10 59 14 131q6 106 -27.5 155.5t-115.5 72.5l6 125q156 39 164 215q4 51 -2 98q-12 117 -10 145q4 59 28.5 112.5t61.5 78.5q72 49 258 49h29l-7 -109q-74 -6 -107.5 -34.5t-35.5 -89.5 q-2 -27 8 -123q6 -55 2 -119q-8 -129 -66.5 -196.5t-168.5 -90.5q111 -31 164 -103.5t45 -211.5q-4 -63 -15 -113q-23 -117 -22 -139q-2 -61 27.5 -89t101.5 -32z" />
<glyph unicode="|" horiz-adv-x="380" d="M297 1274v-1274h-131v1274h131z" />
<glyph unicode="}" horiz-adv-x="753" d="M649 707l-6 -125q-86 -23 -125 -72t-45 -156q-4 -72 2 -129q10 -111 10 -159q-6 -113 -80.5 -164.5t-234.5 -51.5q-25 0 -37 3h-27l7 108q72 2 104.5 29.5t36.5 87.5q0 6 -8 137q-6 63 -4 115q8 137 67.5 209.5t175.5 103.5q-219 45 -204 287q4 66 14 117q18 102 20 124 q4 61 -25.5 89t-105.5 32l6 111h29q188 0 254 -49q78 -59 72 -195q-4 -45 -25 -139q-8 -53 -12 -98q-4 -94 30.5 -144.5t110.5 -70.5z" />
<glyph unicode="~" d="M918 938h143q-2 -135 -20.5 -221t-56.5 -128t-80 -55.5t-107 -13.5q-94 0 -183 58l-211 137q-49 31 -94 30q-59 0 -87.5 -47t-33.5 -155h-137q2 244 63.5 340t207.5 96q82 0 124 -31q49 -37 228 -151q92 -61 135 -62q55 0 80 47t29 156z" />
<glyph unicode="&#xa1;" horiz-adv-x="716" d="M502 -16h-271l72 874h229zM270 1108q0 68 48.5 115t115.5 47q72 0 122 -50.5t48 -119.5q0 -66 -50 -112t-118 -46q-70 0 -118 48t-48 118z" />
<glyph unicode="&#xa2;" d="M926 1016l-43 -113q35 -10 80 -26l-11 -226q-70 45 -139 56l-201 -529q35 -10 62 -10q121 0 227 86l-8 -201q-113 -80 -262 -80q-57 0 -90 7l-58 -154l-121 41l56 143q-262 102 -262 396q0 229 135 377.5t364 148.5q49 0 99 -6l49 133zM498 236l184 491 q-113 -6 -177.5 -90t-64.5 -221q1 -121 58 -180z" />
<glyph unicode="&#xa3;" d="M96 684h205q16 305 120.5 458.5t344.5 153.5q154 0 293 -71l-10 -252q-98 98 -230 98q-106 0 -162.5 -85t-76.5 -302h280v-205h-311q-37 -129 -162 -264h610l-6 -215h-940v106q180 180 219 373h-174v205z" />
<glyph unicode="&#xa4;" horiz-adv-x="1253" d="M1102 360q-90 -94 -137 -139l-142 139q-106 -68 -235 -67.5t-234 67.5l-143 -139l-135 139l143 136q-70 111 -69 229q0 121 69 229l-143 138l135 139l143 -139q106 68 234 67q129 0 235 -67l142 139q47 -45 137 -139l-144 -138q70 -111 70 -229q0 -115 -70 -229zM834 727 q0 100 -74 170t-170 70q-102 0 -174 -71t-72 -169q0 -100 71.5 -171t172.5 -71q102 0 174 71t72 171z" />
<glyph unicode="&#xa5;" d="M825 1272h295l-391 -580h234l-9 -160h-268l-6 -100h272l-6 -160h-272l-19 -272h-284l18 272h-264l8 160h262l6 100h-266l10 160h228l-324 580h301l211 -438z" />
<glyph unicode="&#xa6;" horiz-adv-x="393" d="M305 1403v-488h-145v488h145zM305 487v-487h-145v487h145z" />
<glyph unicode="&#xa7;" d="M123 963q0 162 122 244.5t349 82.5q287 0 387 -186q27 -53 35 -97t6 -128h-270q2 98 -38 138t-136 40q-72 0 -114 -29t-42 -80q0 -61 39 -86.5t196 -64.5q197 -49 279 -138.5t82 -248.5q0 -215 -205 -324q139 -92 139 -276q0 -162 -132 -253.5t-353 -91.5q-231 0 -336 80 q-61 47 -97 131t-32 168l4 29h277q0 -98 38.5 -145t122.5 -47q174 0 174 124q0 66 -38.5 95.5t-178.5 62.5q-195 47 -280.5 144.5t-85.5 263.5q0 254 223 319q-135 93 -135 273zM741 375q0 80 -63.5 130t-165.5 50q-92 0 -146.5 -46t-54.5 -126q0 -82 62.5 -131t173.5 -49 q154 0 188 135q0 4 2 11t3 13.5t1 12.5z" />
<glyph unicode="&#xa8;" horiz-adv-x="624" d="M756 1159q0 -57 -40 -97t-97.5 -40t-98.5 39t-41 96q0 59 41 101t98.5 42t97.5 -41t40 -100zM307 1159.5q0 -57.5 -41 -97.5t-96 -40q-57 0 -98 40t-41 97q0 59 41 100t98 41q55 0 96 -41.5t41 -99z" />
<glyph unicode="&#xa9;" horiz-adv-x="1476" d="M1477 643q0 -293 -205 -499.5t-496 -206.5t-494.5 208.5t-203.5 503.5q0 287 209 489.5t504 202.5q285 0 485.5 -203.5t200.5 -494.5zM1380 641q0 252 -178 429t-428 177q-244 0 -419 -172t-177 -416q-2 -262 176 -447t428 -185q248 0 423 179t175 435zM983 498h115 q-14 -127 -97 -203t-206 -76q-147 0 -241.5 111.5t-94.5 287.5q0 170 96 276.5t250 106.5q125 0 202.5 -71.5t90.5 -198.5h-119q-25 170 -172 170q-100 0 -161.5 -79t-61.5 -206q0 -129 59 -209.5t154 -80.5q72 0 121 45t65 127z" />
<glyph unicode="&#xaa;" horiz-adv-x="626" d="M412 1298q80 0 161 -24l-20 -330q-2 -53 49 -53q16 0 49 12l-4 -96q-51 -29 -104 -29q-102 0 -119 78q-59 -76 -162 -76q-88 0 -135 54.5t-47 154.5q0 147 86 228t246 81zM416 1057l8 98q-39 10 -59 10q-57 0 -94.5 -47t-37.5 -119q0 -82 70 -81q45 0 77 39t36 100z" />
<glyph unicode="&#xab;" horiz-adv-x="1030" d="M735 807h252l-209 -346l172 -352h-245l-187 354zM334 807h252l-211 -348l174 -350h-246l-190 354z" />
<glyph unicode="&#xac;" d="M1059 893v-600h-221v371h-797v229h1018z" />
<glyph unicode="&#xad;" horiz-adv-x="534" d="M500 563v-194h-465v194h465z" />
<glyph unicode="&#xae;" horiz-adv-x="909" d="M936 1022q0 -164 -122 -279.5t-294 -115.5q-176 0 -300 113.5t-124 277.5q0 170 126 291t306 121q168 0 288 -119t120 -289zM874 1020q0 147 -103 251.5t-249 104.5q-152 0 -260 -101t-108 -245q0 -145 107.5 -246.5t260.5 -101.5q145 0 248.5 99.5t103.5 238.5z M387 1233h156q139 0 139 -100q0 -76 -86 -105q27 -12 36 -32.5t21.5 -72t30.5 -98.5h-72q-12 31 -24.5 83.5t-25.5 75t-42 22.5h-69v-181h-64v408zM451 1061h75q37 0 60.5 17.5t23.5 45.5q0 23 -17.5 38.5t-43.5 15.5h-98v-117z" />
<glyph unicode="&#xaf;" horiz-adv-x="624" d="M111 1208h610l-6 -186h-611z" />
<glyph unicode="&#xb0;" horiz-adv-x="763" d="M780 969q0 -139 -99 -239.5t-241 -100.5q-137 0 -233 98t-96 237.5t98 236.5t237.5 97t236.5 -96t97 -233zM627 966.5q0 75.5 -53.5 128t-129.5 52.5q-74 0 -126 -52.5t-52 -128t51.5 -129t124.5 -53.5q76 0 130.5 53.5t54.5 129z" />
<glyph unicode="&#xb1;" d="M1061 698v-243h-393v-435h-246v435h-381v243h381v387h246v-387h393zM1044 -43v-221h-991v221h991z" />
<glyph unicode="&#xb2;" horiz-adv-x="753" d="M252 1018l-123 80q53 96 128 146t195.5 50t194.5 -58t74 -157q0 -61 -34 -121.5t-67.5 -96.5t-105.5 -101q-47 -43 -135 -109h305v-145h-590v102q39 37 88 79t85 76l75 73q12 14 44 43.5t47.5 46t34.5 42t28.5 47t9.5 42.5q0 35 -27.5 59.5t-66.5 24.5q-90 0 -160 -123z " />
<glyph unicode="&#xb3;" horiz-adv-x="829" d="M573 901h2q143 -35 144 -182q0 -109 -84 -170.5t-234 -61.5q-109 0 -178 28t-135 101l98 111q90 -98 195 -98q53 0 91 27.5t38 68.5q0 47 -48 75.5t-140 28.5q-12 0 -29 -1t-27 -1l6 148q6 0 29 -3t37 -3q180 0 180 100q0 35 -27.5 54.5t-74.5 19.5q-80 0 -183 -82 l-67 123q100 104 301 104q119 0 187.5 -52t68.5 -144q0 -132 -150 -191z" />
<glyph unicode="&#xb4;" horiz-adv-x="624" d="M399 1288h371l-315 -256h-197z" />
<glyph unicode="&#xb5;" horiz-adv-x="1198" d="M1114 184q59 0 105 35q-2 -23 -3.5 -86t-5.5 -98q-37 -20 -114.5 -43t-120.5 -23q-154 0 -191 133q-82 -133 -227 -133q-41 0 -97.5 20.5t-86.5 53.5q-31 -240 -99 -391q-57 2 -137 7l-110 7q61 121 117.5 479.5t56.5 585.5q0 100 -13 170h263q12 -139 9 -204.5 t-13.5 -173t-10.5 -177.5q0 -63 32 -103t91 -40q199 0 211 383l21 315h270q-43 -541 -43 -590q0 -127 96 -127z" />
<glyph unicode="&#xb6;" d="M604 1272h545l-10 -168h-113l-98 -1645h-160l100 1645h-186l-100 -1645h-164l57 951q-412 18 -412 391q0 231 124 351t417 120zM485 565l33 541q-135 -4 -207.5 -80t-72.5 -213q-1 -244 247 -248z" />
<glyph unicode="&#xb7;" horiz-adv-x="561" d="M481 666q0 -63 -46 -109.5t-111 -46.5q-63 0 -108.5 47t-45.5 113q0 63 44 108t109.5 45t111.5 -45.5t46 -111.5z" />
<glyph unicode="&#xb8;" horiz-adv-x="624" d="M428 -4l-27 -113q70 0 111 -36.5t41 -96.5q0 -84 -73.5 -132t-205.5 -48q-100 0 -190 35l22 119q72 -33 140 -33q51 0 82.5 20.5t31.5 52.5q0 23 -14 37.5t-37 14.5q-4 0 -28 -4l-29 51l35 133h141z" />
<glyph unicode="&#xb9;" horiz-adv-x="829" d="M416 1278h180l-49 -778h-195l43 579q-63 -55 -100 -78l-86 119z" />
<glyph unicode="&#xba;" horiz-adv-x="575" d="M610 1047q0 -133 -71.5 -206t-206.5 -73q-113 0 -179.5 68.5t-66.5 181.5q0 131 75 203.5t204 72.5q115 0 180 -67t65 -180zM453 1042q0 53 -25 85t-72 32q-111 0 -110 -139q0 -53 25.5 -84t70.5 -31q49 0 80 37t31 100z" />
<glyph unicode="&#xbb;" horiz-adv-x="1030" d="M768 807l219 -344l-190 -354h-244l172 350l-211 348h254zM365 807l217 -344l-187 -354h-243l172 352l-211 346h252z" />
<glyph unicode="&#xbc;" horiz-adv-x="1683" d="M313 1276h181l-50 -776h-194l43 579q-63 -55 -100 -78l-87 119zM1092 1276h211l-838 -1278h-207zM1495 328h100l-6 -140h-100l-12 -190h-179l13 190h-357l7 136l313 452h209l-305 -448h139l10 164h176z" />
<glyph unicode="&#xbd;" horiz-adv-x="1683" d="M264 1276h180l-49 -776h-194l43 579q-63 -55 -101 -78l-86 119zM1022 1276h211l-838 -1280h-207zM1112 508l-123 80q53 96 128 146t196 50t194.5 -58t73.5 -157q0 -74 -53 -148.5t-150 -168.5q-41 -41 -139 -111h305v-145h-590v102q39 37 87.5 77t84 73t74.5 76l43 48 l47 51q18 19 38 44t29 45t9 35q0 35 -27.5 59.5t-66.5 24.5q-90 0 -160 -123z" />
<glyph unicode="&#xbe;" horiz-adv-x="1683" d="M549 901h2q143 -35 143 -182q0 -109 -84 -170.5t-233 -61.5q-109 0 -178.5 28t-135.5 101l99 111q90 -98 194 -98q53 0 91 27.5t38 68.5q0 104 -188 104q-12 0 -28.5 -1t-26.5 -1l6 148q6 0 28.5 -3t36.5 -3q74 0 127.5 26.5t53.5 73.5q0 35 -28 54.5t-75 19.5 q-80 0 -182 -82l-68 123q100 104 301 104q119 0 187.5 -52t68.5 -144q1 -132 -149 -191zM1251 1274h211l-837 -1278h-207zM1604 317h100l-6 -139h-101l-12 -188h-178l12 188h-356l6 135l313 453h209l-305 -449h139l11 164h176z" />
<glyph unicode="&#xbf;" horiz-adv-x="864" d="M827 274l21 -223q-164 -70 -324 -69q-201 0 -317.5 99t-116.5 269q0 152 97.5 246t275.5 115l14 178h254l-24 -387l-74 4q-258 0 -258 -152q0 -63 52 -105t132 -42q104 -1 268 67zM449 1133q0 68 48 114.5t117.5 46.5t118.5 -50t49 -120q0 -66 -49 -111.5t-118.5 -45.5 t-117.5 48t-48 118z" />
<glyph unicode="&#xc0;" horiz-adv-x="1284" d="M870 1270l414 -1270h-313l-111 348h-391l-156 -348h-313l586 1270h284zM553 553h252l-109 338zM752 1622l139 -256h-197l-315 256h373z" />
<glyph unicode="&#xc1;" horiz-adv-x="1284" d="M870 1270l414 -1270h-313l-111 348h-391l-156 -348h-313l586 1270h284zM553 553h252l-109 338zM748 1622h370l-315 -256h-197z" />
<glyph unicode="&#xc2;" horiz-adv-x="1284" d="M870 1270l414 -1270h-313l-111 348h-391l-156 -348h-313l586 1270h284zM553 553h252l-109 338zM907 1634l201 -260h-231l-140 111l-157 -111h-232l240 260h319z" />
<glyph unicode="&#xc3;" horiz-adv-x="1284" d="M870 1270l414 -1270h-313l-111 348h-391l-156 -348h-313l586 1270h284zM553 553h252l-109 338zM999 1733h125q-6 -348 -235 -349q-57 0 -141 55.5t-148 55.5q-82 0 -92 -117h-123q0 158 54.5 250t158.5 92q78 0 174 -57t133 -57q80 0 94 127z" />
<glyph unicode="&#xc4;" horiz-adv-x="1284" d="M870 1270l414 -1270h-313l-111 348h-391l-156 -348h-313l586 1270h284zM553 553h252l-109 338zM1104 1493q0 -57 -40 -97t-97.5 -40t-98.5 39t-41 96q0 59 41 101t98.5 42t97.5 -41t40 -100zM655 1493q0 -57 -41 -97t-96 -40q-57 0 -98 40t-41 97q0 59 41 100t98 41 q55 0 96 -42t41 -99z" />
<glyph unicode="&#xc5;" horiz-adv-x="1284" d="M870 1270l414 -1270h-313l-111 348h-391l-156 -348h-313l586 1270h284zM553 553h252l-109 338zM973 1561q0 -82 -61.5 -141.5t-147.5 -59.5q-84 0 -143.5 60.5t-59.5 146.5q0 84 60.5 144.5t144.5 60.5q86 0 146.5 -61.5t60.5 -149.5zM870 1565q0 43 -30.5 73.5 t-73.5 30.5q-45 0 -76 -29.5t-31 -72.5t31 -74t74 -31t74.5 30t31.5 73z" />
<glyph unicode="&#xc6;" horiz-adv-x="1961" d="M1982 1270l-8 -230h-631l52 -331h495l-8 -230h-457l52 -258h442l-6 -221h-692l-86 479h-449l-362 -479h-326l936 1270h1048zM829 709h269l-49 329z" />
<glyph unicode="&#xc7;" horiz-adv-x="1183" d="M504 -139l35 127q-201 39 -306.5 192.5t-105.5 403.5q0 328 169 520t456 192q145 0 250.5 -51t197.5 -166l-137 -178q-121 150 -291 150q-158 0 -249 -120t-91 -327q0 -377 291 -377q90 0 167 39t169 133l115 -196q-209 -221 -472 -228l-18 -84q80 -2 128 -45t48 -112 q0 -96 -86 -152.5t-233 -56.5q-117 0 -226 41l27 139q90 -39 162 -39q59 0 95 23.5t36 62.5q0 27 -18.5 44.5t-45.5 17.5q-12 0 -36 -7z" />
<glyph unicode="&#xc8;" horiz-adv-x="972" d="M238 1270h755l-8 -230h-465l-20 -272h407l-10 -229h-410l-20 -318h463l-6 -221h-762zM672 1622l139 -256h-197l-315 256h373z" />
<glyph unicode="&#xc9;" horiz-adv-x="972" d="M238 1270h755l-8 -230h-465l-20 -272h407l-10 -229h-410l-20 -318h463l-6 -221h-762zM668 1622h370l-315 -256h-197z" />
<glyph unicode="&#xca;" horiz-adv-x="972" d="M238 1270h755l-8 -230h-465l-20 -272h407l-10 -229h-410l-20 -318h463l-6 -221h-762zM827 1634l201 -260h-231l-140 111l-157 -111h-232l240 260h319z" />
<glyph unicode="&#xcb;" horiz-adv-x="972" d="M238 1270h755l-8 -230h-465l-20 -272h407l-10 -229h-410l-20 -318h463l-6 -221h-762zM1024 1493q0 -57 -40 -97t-97.5 -40t-98 39t-40.5 96q0 59 40.5 101t98 42t97.5 -41t40 -100zM575 1493q0 -57 -40.5 -97t-96.5 -40q-57 0 -98 40t-41 97q0 59 41 100t98 41 q55 0 96 -42t41 -99z" />
<glyph unicode="&#xcc;" horiz-adv-x="552" d="M213 1270h295l-82 -1270h-299zM395 1622l140 -256h-197l-315 256h372z" />
<glyph unicode="&#xcd;" horiz-adv-x="552" d="M213 1270h295l-82 -1270h-299zM399 1622h371l-315 -256h-197z" />
<glyph unicode="&#xce;" horiz-adv-x="552" d="M213 1270h295l-82 -1270h-299zM545 1634l200 -260h-231l-139 111l-158 -111h-231l239 260h320z" />
<glyph unicode="&#xcf;" horiz-adv-x="552" d="M213 1270h295l-82 -1270h-299zM731 1493q0 -57 -40 -97t-97 -40t-98 39t-41 96q0 59 41 101t98 42t97 -41t40 -100zM283 1493q0 -57 -41 -97t-97 -40q-57 0 -98 40t-41 97q0 59 41 100t98 41q55 0 96.5 -42t41.5 -99z" />
<glyph unicode="&#xd0;" horiz-adv-x="1421" d="M219 733l33 541q147 18 358 18q741 0 742 -600q0 -324 -202 -511t-632 -187q-201 0 -344 18l35 568h-143l8 153h145zM522 580l-20 -347q37 -6 71 -6q215 0 326 117t111 346q0 190 -89.5 279.5t-281.5 89.5q-10 0 -20.5 -1t-29 -2t-36.5 -1l-21 -322h207l-6 -153h-211z " />
<glyph unicode="&#xd1;" horiz-adv-x="1484" d="M1118 1270h287l-84 -1270h-311l-400 659l-112 205q-4 -203 -9 -276l-38 -588h-287l82 1270h309l397 -662l113 -192q4 166 10 254zM1106 1733h125q-6 -348 -236 -349q-57 0 -141 55.5t-147 55.5q-82 0 -93 -117h-122q0 158 54 250t159 92q78 0 174 -57t133 -57 q80 0 94 127z" />
<glyph unicode="&#xd2;" horiz-adv-x="1511" d="M1430 705q0 -358 -176.5 -543t-499.5 -185q-279 0 -430.5 156t-151.5 442q0 332 182.5 533t497.5 201q279 0 428.5 -161.5t149.5 -442.5zM1096 698q0 168 -70 261.5t-197 93.5q-150 0 -236.5 -131t-86.5 -357q0 -170 69.5 -262t196.5 -92q150 0 237 124.5t87 362.5z M885 1622l139 -256h-197l-315 256h373z" />
<glyph unicode="&#xd3;" horiz-adv-x="1511" d="M1430 705q0 -358 -176.5 -543t-499.5 -185q-279 0 -430.5 156t-151.5 442q0 332 182.5 533t497.5 201q279 0 428.5 -161.5t149.5 -442.5zM1096 698q0 168 -70 261.5t-197 93.5q-150 0 -236.5 -131t-86.5 -357q0 -170 69.5 -262t196.5 -92q150 0 237 124.5t87 362.5z M881 1622h370l-315 -256h-197z" />
<glyph unicode="&#xd4;" horiz-adv-x="1511" d="M1430 705q0 -358 -176.5 -543t-499.5 -185q-279 0 -430.5 156t-151.5 442q0 332 182.5 533t497.5 201q279 0 428.5 -161.5t149.5 -442.5zM1096 698q0 168 -70 261.5t-197 93.5q-150 0 -236.5 -131t-86.5 -357q0 -170 69.5 -262t196.5 -92q150 0 237 124.5t87 362.5z M1040 1634l201 -260h-231l-140 111l-157 -111h-232l240 260h319z" />
<glyph unicode="&#xd5;" horiz-adv-x="1511" d="M1430 705q0 -358 -176.5 -543t-499.5 -185q-279 0 -430.5 156t-151.5 442q0 332 182.5 533t497.5 201q279 0 428.5 -161.5t149.5 -442.5zM1096 698q0 168 -70 261.5t-197 93.5q-150 0 -236.5 -131t-86.5 -357q0 -170 69.5 -262t196.5 -92q150 0 237 124.5t87 362.5z M1133 1733h124q-6 -348 -235 -349q-55 0 -141 55.5t-148 55.5q-82 0 -92 -117h-123q0 158 54.5 250t158.5 92q78 0 174 -57t133 -57q81 0 95 127z" />
<glyph unicode="&#xd6;" horiz-adv-x="1511" d="M1430 705q0 -358 -176.5 -543t-499.5 -185q-279 0 -430.5 156t-151.5 442q0 332 182.5 533t497.5 201q279 0 428.5 -161.5t149.5 -442.5zM1096 698q0 168 -70 261.5t-197 93.5q-150 0 -236.5 -131t-86.5 -357q0 -170 69.5 -262t196.5 -92q150 0 237 124.5t87 362.5z M1237 1493q0 -57 -40 -97t-97.5 -40t-98 39t-40.5 96q0 59 40.5 101t98 42t97.5 -41t40 -100zM788 1493q0 -57 -40.5 -97t-96.5 -40q-57 0 -98 40t-41 97q0 59 41 100t98 41q55 0 96 -42t41 -99z" />
<glyph unicode="&#xd7;" d="M690 553l334 -330l-174 -174l-332 328l-334 -334l-172 172l334 334l-332 332l174 174l330 -332l324 321l170 -170z" />
<glyph unicode="&#xd8;" horiz-adv-x="1550" d="M1446 1343l113 -100l-195 -194q109 -164 109 -379q0 -313 -173.5 -501.5t-521.5 -188.5q-246 0 -391 124l-180 -176l-119 99l188 190q-113 150 -112 381q0 326 180 511t526 185q119 0 224.5 -42t162.5 -93zM528 459l492 477q-68 74 -209 74q-143 0 -225 -106.5 t-82 -293.5q-1 -94 24 -151zM1106 801l-490 -475q78 -68 222 -68q133 0 212.5 95.5t79.5 287.5q1 66 -24 160z" />
<glyph unicode="&#xd9;" horiz-adv-x="1468" d="M1081 1270h320l-51 -697q-23 -326 -158 -463t-449 -137q-295 0 -428 144.5t-110 451.5l51 701h311l-45 -701q-14 -199 42.5 -277.5t189.5 -78.5t203.5 80t82.5 291zM840 1622l139 -256h-197l-315 256h373z" />
<glyph unicode="&#xda;" horiz-adv-x="1468" d="M1081 1270h320l-51 -697q-23 -326 -158 -463t-449 -137q-295 0 -428 144.5t-110 451.5l51 701h311l-45 -701q-14 -199 42.5 -277.5t189.5 -78.5t203.5 80t82.5 291zM836 1622h370l-315 -256h-197z" />
<glyph unicode="&#xdb;" horiz-adv-x="1468" d="M1081 1270h320l-51 -697q-23 -326 -158 -463t-449 -137q-295 0 -428 144.5t-110 451.5l51 701h311l-45 -701q-14 -199 42.5 -277.5t189.5 -78.5t203.5 80t82.5 291zM995 1634l201 -260h-231l-140 111l-157 -111h-232l240 260h319z" />
<glyph unicode="&#xdc;" horiz-adv-x="1468" d="M1081 1270h320l-51 -697q-23 -326 -158 -463t-449 -137q-295 0 -428 144.5t-110 451.5l51 701h311l-45 -701q-14 -199 42.5 -277.5t189.5 -78.5t203.5 80t82.5 291zM1192 1493q0 -57 -40 -97t-97.5 -40t-98.5 39t-41 96q0 59 41 101t98.5 42t97.5 -41t40 -100zM743 1493 q0 -57 -40.5 -97t-96.5 -40q-57 0 -98 40t-41 97q0 59 41 100t98 41q55 0 96 -42t41 -99z" />
<glyph unicode="&#xdd;" horiz-adv-x="1185" d="M938 1270h338l-485 -678l-43 -592h-312l41 584l-389 686h326l229 -469zM729 1622h371l-316 -256h-196z" />
<glyph unicode="&#xde;" horiz-adv-x="1224" d="M575 1169h113q494 0 494 -370q0 -176 -136.5 -273.5t-381.5 -97.5q-109 0 -156 4l-29 -432h-313l96 1407h332zM547 952l-23 -293q35 -6 78 -6q127 0 186.5 39t59.5 125q0 66 -58.5 101.5t-162.5 35.5q-45 0 -80 -2z" />
<glyph unicode="&#xdf;" horiz-adv-x="1191" d="M844 723q0 -37 28.5 -68.5t110.5 -89.5q170 -117 170 -286q0 -141 -97.5 -222.5t-269.5 -81.5q-125 0 -262 54l70 204q82 -33 145 -32q129 0 129 92q0 37 -22.5 60.5t-102.5 72.5q-143 84 -143 262t143 248q16 35 17 92q0 66 -32 103.5t-87 37.5q-80 0 -111.5 -65.5 t-31.5 -243.5l-11 -530q-4 -174 -18 -299q-20 -166 -59 -268.5t-111 -153.5t-150.5 -66.5t-209.5 -15.5q-57 0 -134 18l15 201q68 -14 114 -14q68 0 112 9t78 37.5t52.5 67.5t31.5 114t17 159t6 221l7 367h-162l10 194h160q0 276 93 395t310 119q352 0 352 -356 q0 -139 -40 -213q-68 -29 -92.5 -53.5t-24.5 -69.5z" />
<glyph unicode="&#xe0;" horiz-adv-x="1161" d="M766 119q-109 -137 -297 -137q-160 0 -248 99t-88 279q0 266 156.5 413t449.5 147q158 0 301 -43q-39 -594 -39 -601q0 -156 23 -276h-244q-2 6 -4 17.5t-6 42t-4 59.5zM754 483l12 179q-68 18 -111 18q-106 0 -175.5 -85t-69.5 -216q0 -72 35.5 -112t99.5 -40 q84 0 142.5 71.5t66.5 184.5zM690 1288l139 -256h-196l-316 256h373z" />
<glyph unicode="&#xe1;" horiz-adv-x="1161" d="M766 119q-109 -137 -297 -137q-160 0 -248 99t-88 279q0 266 156.5 413t449.5 147q158 0 301 -43q-39 -594 -39 -601q0 -156 23 -276h-244q-2 6 -4 17.5t-6 42t-4 59.5zM754 483l12 179q-68 18 -111 18q-106 0 -175.5 -85t-69.5 -216q0 -72 35.5 -112t99.5 -40 q84 0 142.5 71.5t66.5 184.5zM686 1288h371l-316 -256h-196z" />
<glyph unicode="&#xe2;" horiz-adv-x="1161" d="M766 119q-109 -137 -297 -137q-160 0 -248 99t-88 279q0 266 156.5 413t449.5 147q158 0 301 -43q-39 -594 -39 -601q0 -156 23 -276h-244q-2 6 -4 17.5t-6 42t-4 59.5zM754 483l12 179q-68 18 -111 18q-106 0 -175.5 -85t-69.5 -216q0 -72 35.5 -112t99.5 -40 q84 0 142.5 71.5t66.5 184.5zM846 1300l201 -260h-232l-139 111l-158 -111h-231l239 260h320z" />
<glyph unicode="&#xe3;" horiz-adv-x="1161" d="M766 119q-109 -137 -297 -137q-160 0 -248 99t-88 279q0 266 156.5 413t449.5 147q158 0 301 -43q-39 -594 -39 -601q0 -156 23 -276h-244q-2 6 -4 17.5t-6 42t-4 59.5zM754 483l12 179q-68 18 -111 18q-106 0 -175.5 -85t-69.5 -216q0 -72 35.5 -112t99.5 -40 q84 0 142.5 71.5t66.5 184.5zM938 1399h125q-6 -348 -236 -348q-57 0 -141 55t-147 55q-82 0 -93 -117h-122q0 158 54 250t159 92q78 0 174 -57t133 -57q80 0 94 127z" />
<glyph unicode="&#xe4;" horiz-adv-x="1161" d="M766 119q-109 -137 -297 -137q-160 0 -248 99t-88 279q0 266 156.5 413t449.5 147q158 0 301 -43q-39 -594 -39 -601q0 -156 23 -276h-244q-2 6 -4 17.5t-6 42t-4 59.5zM754 483l12 179q-68 18 -111 18q-106 0 -175.5 -85t-69.5 -216q0 -72 35.5 -112t99.5 -40 q84 0 142.5 71.5t66.5 184.5zM1042 1159q0 -57 -39.5 -97t-97 -40t-98.5 39t-41 96q0 59 41 101t98.5 42t97 -41t39.5 -100zM594 1159.5q0 -57.5 -41 -97.5t-96 -40q-57 0 -98.5 40t-41.5 97q0 59 41 100t99 41q55 0 96 -41.5t41 -99z" />
<glyph unicode="&#xe5;" horiz-adv-x="1161" d="M766 119q-109 -137 -297 -137q-160 0 -248 99t-88 279q0 266 156.5 413t449.5 147q158 0 301 -43q-39 -594 -39 -601q0 -156 23 -276h-244q-2 6 -4 17.5t-6 42t-4 59.5zM754 483l12 179q-68 18 -111 18q-106 0 -175.5 -85t-69.5 -216q0 -72 35.5 -112t99.5 -40 q84 0 142.5 71.5t66.5 184.5zM911 1227q0 -82 -61.5 -141.5t-147.5 -59.5q-84 0 -143 60.5t-59 146.5q0 84 60.5 144.5t144.5 60.5q86 0 146 -61.5t60 -149.5zM809 1231q0 43 -30.5 73.5t-73.5 30.5q-45 0 -76 -29.5t-31 -72.5t30.5 -74t73.5 -31t75 30t32 73z" />
<glyph unicode="&#xe6;" horiz-adv-x="1648" d="M967 766q76 96 141.5 128t183.5 32q139 0 230.5 -71t91.5 -179q0 -137 -146.5 -230.5t-363.5 -93.5q-29 0 -55 2q4 -80 53 -128t129 -48q129 0 299 105v-220q-164 -90 -330 -90q-274 0 -358 203q-129 -195 -355 -194q-166 0 -262 102t-96 285q0 252 160 403.5t422 151.5 q125 0 270 -45q-2 -13 -14 -113zM1356 655q0 33 -28 54.5t-68 21.5q-76 0 -138.5 -57.5t-70.5 -136.5q25 -4 47 -5q115 0 186.5 34t71.5 89zM762 530l8 123q-66 14 -102 15q-113 0 -183.5 -75t-70.5 -196q0 -154 127 -153q92 0 152.5 76.5t68.5 209.5z" />
<glyph unicode="&#xe7;" horiz-adv-x="919" d="M422 -111l27 105q-315 68 -316 416q0 229 130 371.5t366 142.5q152 0 260 -70l-58 -233q-94 63 -186 63q-106 0 -166.5 -69.5t-60.5 -184.5q0 -102 55 -156.5t158 -54.5q106 0 217 68l8 -236q-121 -66 -268 -71l-17 -70q70 0 111 -37t41 -96q0 -84 -74 -132t-205 -48 q-98 0 -190 34l25 119q72 -33 137 -33q51 0 82.5 20.5t31.5 53.5q0 20 -15 35.5t-36 15.5q-4 0 -28 -4z" />
<glyph unicode="&#xe8;" horiz-adv-x="1005" d="M862 274l-6 -217q-152 -82 -319 -82q-195 0 -307.5 109t-112.5 301q0 231 146.5 386t365.5 155q152 0 240.5 -71t88.5 -191q0 -141 -140 -230.5t-363 -89.5q-6 0 -25.5 1t-34.5 1q4 -80 49 -123t125 -43q133 0 293 94zM682 639q0 33 -23.5 52.5t-62.5 19.5 q-57 0 -106.5 -50.5t-67.5 -128.5q25 -4 53 -4q94 0 150.5 30t56.5 81zM639 1288l139 -256h-196l-316 256h373z" />
<glyph unicode="&#xe9;" horiz-adv-x="1005" d="M862 274l-6 -217q-152 -82 -319 -82q-195 0 -307.5 109t-112.5 301q0 231 146.5 386t365.5 155q152 0 240.5 -71t88.5 -191q0 -141 -140 -230.5t-363 -89.5q-6 0 -25.5 1t-34.5 1q4 -80 49 -123t125 -43q133 0 293 94zM682 639q0 33 -23.5 52.5t-62.5 19.5 q-57 0 -106.5 -50.5t-67.5 -128.5q25 -4 53 -4q94 0 150.5 30t56.5 81zM635 1288h371l-316 -256h-196z" />
<glyph unicode="&#xea;" horiz-adv-x="1005" d="M862 274l-6 -217q-152 -82 -319 -82q-195 0 -307.5 109t-112.5 301q0 231 146.5 386t365.5 155q152 0 240.5 -71t88.5 -191q0 -141 -140 -230.5t-363 -89.5q-6 0 -25.5 1t-34.5 1q4 -80 49 -123t125 -43q133 0 293 94zM682 639q0 33 -23.5 52.5t-62.5 19.5 q-57 0 -106.5 -50.5t-67.5 -128.5q25 -4 53 -4q94 0 150.5 30t56.5 81zM795 1300l200 -260h-231l-139 111l-158 -111h-231l239 260h320z" />
<glyph unicode="&#xeb;" horiz-adv-x="1005" d="M862 274l-6 -217q-152 -82 -319 -82q-195 0 -307.5 109t-112.5 301q0 231 146.5 386t365.5 155q152 0 240.5 -71t88.5 -191q0 -141 -140 -230.5t-363 -89.5q-6 0 -25.5 1t-34.5 1q4 -80 49 -123t125 -43q133 0 293 94zM682 639q0 33 -23.5 52.5t-62.5 19.5 q-57 0 -106.5 -50.5t-67.5 -128.5q25 -4 53 -4q94 0 150.5 30t56.5 81zM991 1159q0 -57 -40 -97t-97 -40t-98 39t-41 96q0 59 41 101t98 42t97 -41t40 -100zM543 1159.5q0 -57.5 -41 -97.5t-96 -40q-57 0 -98.5 40t-41.5 97q0 59 41 100t99 41q55 0 96 -41.5t41 -99z" />
<glyph unicode="&#xec;" horiz-adv-x="624" d="M231 901h275l-55 -901h-275zM399 1288l140 -256h-197l-315 256h372z" />
<glyph unicode="&#xed;" horiz-adv-x="624" d="M231 901h275l-55 -901h-275zM399 1288h371l-315 -256h-197z" />
<glyph unicode="&#xee;" horiz-adv-x="624" d="M231 901h275l-55 -901h-275zM571 1300l201 -260h-231l-140 111l-157 -111h-232l240 260h319z" />
<glyph unicode="&#xef;" horiz-adv-x="624" d="M231 901h275l-55 -901h-275zM756 1159q0 -57 -40 -97t-97.5 -40t-98.5 39t-41 96q0 59 41 101t98.5 42t97.5 -41t40 -100zM307 1159.5q0 -57.5 -41 -97.5t-96 -40q-57 0 -98 40t-41 97q0 59 41 100t98 41q55 0 96 -41.5t41 -99z" />
<glyph unicode="&#xf0;" horiz-adv-x="1175" d="M1038 1268l-106 -70q190 -203 190 -582q0 -303 -129 -471t-375 -168q-219 0 -350 108t-131 302q0 225 128 359.5t331 134.5q115 0 205 -72q-16 156 -94 244l-162 -107l-25 129l15 9l26 18l31 20l12 6q-72 37 -180 50l65 206q203 -14 345 -104l178 117zM821 469 q0 92 -49 139t-141 47q-94 0 -148.5 -67.5t-54.5 -177.5q0 -88 51 -137.5t137 -49.5q94 0 149.5 70t55.5 176z" />
<glyph unicode="&#xf1;" horiz-adv-x="1183" d="M489 803q131 125 287 125q125 0 201 -86t67 -228l-36 -614h-281l39 557q4 61 -30 103t-91 42q-59 0 -104 -56t-52 -142l-32 -504h-281q39 645 39 659q0 162 -29 242h279q16 -41 24 -98zM911 1399h125q-6 -348 -235 -348q-55 0 -141.5 55t-147.5 55q-82 0 -92 -117h-123 q0 158 54.5 250t158.5 92q78 0 174 -57t133 -57q80 0 94 127z" />
<glyph unicode="&#xf2;" horiz-adv-x="1157" d="M1083 477q0 -242 -131 -373t-374 -131q-203 0 -325 124t-122 329q0 236 136 369t370 133q209 0 327.5 -122t118.5 -329zM799 471q0 96 -46 153.5t-130 57.5q-94 0 -147.5 -65.5t-53.5 -188.5q0 -96 46 -152.5t130 -56.5q90 0 145.5 68.5t55.5 183.5zM684 1288l139 -256 h-196l-316 256h373z" />
<glyph unicode="&#xf3;" horiz-adv-x="1157" d="M1083 477q0 -242 -131 -373t-374 -131q-203 0 -325 124t-122 329q0 236 136 369t370 133q209 0 327.5 -122t118.5 -329zM799 471q0 96 -46 153.5t-130 57.5q-94 0 -147.5 -65.5t-53.5 -188.5q0 -96 46 -152.5t130 -56.5q90 0 145.5 68.5t55.5 183.5zM680 1288h371 l-316 -256h-196z" />
<glyph unicode="&#xf4;" horiz-adv-x="1157" d="M1083 477q0 -242 -131 -373t-374 -131q-203 0 -325 124t-122 329q0 236 136 369t370 133q209 0 327.5 -122t118.5 -329zM799 471q0 96 -46 153.5t-130 57.5q-94 0 -147.5 -65.5t-53.5 -188.5q0 -96 46 -152.5t130 -56.5q90 0 145.5 68.5t55.5 183.5zM840 1300l200 -260 h-231l-139 111l-158 -111h-231l239 260h320z" />
<glyph unicode="&#xf5;" horiz-adv-x="1157" d="M1083 477q0 -242 -131 -373t-374 -131q-203 0 -325 124t-122 329q0 236 136 369t370 133q209 0 327.5 -122t118.5 -329zM799 471q0 96 -46 153.5t-130 57.5q-94 0 -147.5 -65.5t-53.5 -188.5q0 -96 46 -152.5t130 -56.5q90 0 145.5 68.5t55.5 183.5zM932 1399h125 q-6 -348 -236 -348q-55 0 -141 55t-148 55q-82 0 -92 -117h-123q0 158 54.5 250t158.5 92q78 0 174.5 -57t133.5 -57q80 0 94 127z" />
<glyph unicode="&#xf6;" horiz-adv-x="1157" d="M1083 477q0 -242 -131 -373t-374 -131q-203 0 -325 124t-122 329q0 236 136 369t370 133q209 0 327.5 -122t118.5 -329zM799 471q0 96 -46 153.5t-130 57.5q-94 0 -147.5 -65.5t-53.5 -188.5q0 -96 46 -152.5t130 -56.5q90 0 145.5 68.5t55.5 183.5zM1036 1159 q0 -57 -40 -97t-97 -40t-98 39t-41 96q0 59 41 101t98 42t97 -41t40 -100zM588 1159.5q0 -57.5 -41 -97.5t-96 -40q-57 0 -98.5 40t-41.5 97q0 59 41 100t99 41q55 0 96 -41.5t41 -99z" />
<glyph unicode="&#xf7;" d="M696 876.5q0 -59.5 -42 -100.5t-101 -41t-100 41t-41 101q0 61 41 104t100 43t101 -44t42 -103.5zM1053 651v-229h-1016v229h1016zM705 186q0 -57 -43.5 -99t-102.5 -42t-102 42t-43 99q0 61 43 104.5t102 43.5t102.5 -43.5t43.5 -104.5z" />
<glyph unicode="&#xf8;" horiz-adv-x="1183" d="M1073 958l90 -86l-139 -131q68 -113 68 -247q0 -238 -132.5 -380.5t-355.5 -142.5q-190 0 -297 97l-141 -131l-92 83l145 138q-66 90 -65 258q0 231 132 370.5t355 139.5q166 0 297 -92zM434 360l316 293q-31 29 -55.5 38t-76.5 9q-96 0 -147 -65.5t-51 -183.5 q0 -48 14 -91zM811 543l-319 -299q33 -29 57 -38t74 -9q94 0 149 65.5t55 179.5q0 46 -16 101z" />
<glyph unicode="&#xf9;" horiz-adv-x="1175" d="M1059 901l-39 -604q-4 -76 -1 -141.5t9 -110.5l6 -45h-223q-8 53 -10 115q-100 -135 -289 -135q-152 0 -239 75.5t-87 214.5q0 20 12.5 144.5t16.5 230t-10 256.5h260q10 -127 5 -230.5t-16.5 -214t-11.5 -114.5q0 -137 131 -137q184 0 203 248l31 448h252zM684 1288 l139 -256h-196l-316 256h373z" />
<glyph unicode="&#xfa;" horiz-adv-x="1175" d="M1059 901l-39 -604q-4 -76 -1 -141.5t9 -110.5l6 -45h-223q-8 53 -10 115q-100 -135 -289 -135q-152 0 -239 75.5t-87 214.5q0 20 12.5 144.5t16.5 230t-10 256.5h260q10 -127 5 -230.5t-16.5 -214t-11.5 -114.5q0 -137 131 -137q184 0 203 248l31 448h252zM680 1288h371 l-316 -256h-196z" />
<glyph unicode="&#xfb;" horiz-adv-x="1175" d="M1059 901l-39 -604q-4 -76 -1 -141.5t9 -110.5l6 -45h-223q-8 53 -10 115q-100 -135 -289 -135q-152 0 -239 75.5t-87 214.5q0 20 12.5 144.5t16.5 230t-10 256.5h260q10 -127 5 -230.5t-16.5 -214t-11.5 -114.5q0 -137 131 -137q184 0 203 248l31 448h252zM840 1300 l200 -260h-231l-139 111l-158 -111h-231l239 260h320z" />
<glyph unicode="&#xfc;" horiz-adv-x="1175" d="M1059 901l-39 -604q-4 -76 -1 -141.5t9 -110.5l6 -45h-223q-8 53 -10 115q-100 -135 -289 -135q-152 0 -239 75.5t-87 214.5q0 20 12.5 144.5t16.5 230t-10 256.5h260q10 -127 5 -230.5t-16.5 -214t-11.5 -114.5q0 -137 131 -137q184 0 203 248l31 448h252zM1036 1159 q0 -57 -40 -97t-97 -40t-98 39t-41 96q0 59 41 101t98 42t97 -41t40 -100zM588 1159.5q0 -57.5 -41 -97.5t-96 -40q-57 0 -98.5 40t-41.5 97q0 59 41 100t99 41q55 0 96 -41.5t41 -99z" />
<glyph unicode="&#xfd;" horiz-adv-x="1144" d="M760 901h264l-53 -895q-16 -272 -133 -371.5t-387 -99.5q-111 0 -226 27l11 200q102 -29 225 -28q45 0 77.5 7t69.5 29.5t60.5 73t29.5 125.5l11 119q-39 -43 -108 -74.5t-146 -31.5q-270 0 -271 301q0 14 11.5 131.5t15.5 222t-10 264.5h264q8 -109 3 -210t-15.5 -217 t-10.5 -124q0 -72 26 -100.5t83 -28.5q168 0 182 223zM666 1288h370l-315 -256h-197z" />
<glyph unicode="&#xfe;" horiz-adv-x="1173" d="M512 1407l-45 -602q123 123 278.5 123t250 -103.5t94.5 -271.5q0 -242 -123 -401.5t-312 -159.5q-125 0 -209 67l-32 -524h-277l113 1872h262zM455 422l-9 -131q59 -59 144 -60q96 0 155.5 73t59.5 188q0 82 -38 127t-108 45q-84 0 -140 -65.5t-64 -176.5z" />
<glyph unicode="&#xff;" horiz-adv-x="1144" d="M760 901h264l-53 -895q-16 -272 -133 -371.5t-387 -99.5q-111 0 -226 27l11 200q102 -29 225 -28q45 0 77.5 7t69.5 29.5t60.5 73t29.5 125.5l11 119q-39 -43 -108 -74.5t-146 -31.5q-270 0 -271 301q0 14 11.5 131.5t15.5 222t-10 264.5h264q8 -109 3 -210t-15.5 -217 t-10.5 -124q0 -72 26 -100.5t83 -28.5q168 0 182 223zM1022 1159q0 -57 -40 -97t-97.5 -40t-98.5 39t-41 96q0 59 41 101t98.5 42t97.5 -41t40 -100zM573 1159.5q0 -57.5 -40.5 -97.5t-96.5 -40q-57 0 -98 40t-41 97q0 59 41 100t98 41q55 0 96 -41.5t41 -99z" />
<glyph unicode="&#x152;" horiz-adv-x="1998" d="M1151 670q0 158 -78 239.5t-227 81.5q-342 0 -342 -397q0 -158 80 -245t225 -87q164 0 253 106.5t89 301.5zM1180 1163l8 107h827l-8 -230h-514l-20 -272h456l-10 -229h-459l-20 -318h512l-6 -221h-842l10 106q-111 -123 -342 -122q-291 0 -446.5 156.5t-155.5 449.5 q0 342 174 519t516 177q98 0 196.5 -43t123.5 -80z" />
<glyph unicode="&#x153;" horiz-adv-x="1679" d="M1319 930q152 0 239 -71t87 -191q0 -143 -124 -234.5t-343 -91.5q-39 0 -84 2q16 -162 178 -162q139 0 301 103v-215q-131 -92 -350 -93q-197 0 -305 129q-68 -80 -145 -109.5t-198 -29.5q-207 0 -324.5 115t-117.5 317q0 248 136.5 387.5t377.5 139.5q102 0 194.5 -46 t129.5 -114q139 164 348 164zM1399 645q0 33 -26.5 56.5t-65.5 23.5q-49 0 -97.5 -30.5t-76.5 -78.5q-20 -35 -37 -98q303 4 303 127zM807 467q0 94 -48 147.5t-132 53.5q-94 0 -151.5 -66.5t-57.5 -179.5q0 -96 47 -146.5t133 -50.5q94 0 151.5 65.5t57.5 176.5z" />
<glyph unicode="&#x178;" horiz-adv-x="1185" d="M938 1270h338l-485 -678l-43 -592h-312l41 584l-389 686h326l229 -469zM1085 1493q0 -57 -39.5 -97t-97 -40t-98.5 39t-41 96q0 59 41 101t98.5 42t97 -41t39.5 -100zM637 1493q0 -57 -41 -97t-96 -40q-57 0 -98.5 40t-41.5 97q0 59 41 100t99 41q55 0 96 -42t41 -99z " />
<glyph unicode="&#x2c6;" horiz-adv-x="624" d="M559 1300l201 -260h-232l-139 111l-158 -111h-231l240 260h319z" />
<glyph unicode="&#x2dc;" horiz-adv-x="624" d="M651 1399h125q-6 -348 -235 -348q-57 0 -141.5 55t-147.5 55q-82 0 -92 -117h-123q0 158 54 250t159 92q78 0 174 -57t133 -57q80 0 94 127z" />
<glyph unicode="&#x2000;" horiz-adv-x="884" />
<glyph unicode="&#x2001;" horiz-adv-x="1771" />
<glyph unicode="&#x2002;" horiz-adv-x="884" />
<glyph unicode="&#x2003;" horiz-adv-x="1771" />
<glyph unicode="&#x2004;" horiz-adv-x="589" />
<glyph unicode="&#x2005;" horiz-adv-x="442" />
<glyph unicode="&#x2006;" horiz-adv-x="294" />
<glyph unicode="&#x2007;" horiz-adv-x="294" />
<glyph unicode="&#x2008;" horiz-adv-x="221" />
<glyph unicode="&#x2009;" horiz-adv-x="354" />
<glyph unicode="&#x200a;" horiz-adv-x="98" />
<glyph unicode="&#x2010;" horiz-adv-x="534" d="M526 567v-205h-465v205h465z" />
<glyph unicode="&#x2011;" horiz-adv-x="534" d="M526 567v-205h-465v205h465z" />
<glyph unicode="&#x2012;" horiz-adv-x="534" d="M526 567v-205h-465v205h465z" />
<glyph unicode="&#x2013;" horiz-adv-x="1024" d="M1051 569v-204h-1031v204h1031z" />
<glyph unicode="&#x2014;" horiz-adv-x="2048" d="M2077 569v-204h-2048v204h2048z" />
<glyph unicode="&#x2018;" horiz-adv-x="630" d="M420 1290l153 -65q-137 -131 -137 -232q0 -53 37 -97t37 -81q0 -45 -35 -71.5t-94 -26.5q-82 0 -131 54t-49 144q0 100 60.5 202.5t158.5 172.5z" />
<glyph unicode="&#x2019;" horiz-adv-x="630" d="M328 727l-158 61q127 133 127 240q0 47 -37 102.5t-37 81.5q0 39 36 63.5t89 24.5q82 0 133 -53t51 -141q0 -109 -42.5 -192t-161.5 -187z" />
<glyph unicode="&#x201a;" horiz-adv-x="630" d="M264 -256l-158 61q127 133 127 240q0 45 -36.5 94t-36.5 90q0 39 35.5 63.5t89.5 24.5q84 0 134 -53t50 -141q0 -109 -43 -192t-162 -187z" />
<glyph unicode="&#x201c;" horiz-adv-x="899" d="M778 1292l156 -65q-129 -129 -129 -238q0 -41 39 -98t39 -86q0 -37 -37 -60.5t-96 -23.5q-86 0 -133.5 51t-47.5 146q0 214 209 374zM373 1290l153 -65q-76 -72 -104.5 -124t-28.5 -112q0 -43 34 -99t34 -83q0 -41 -36 -64.5t-95 -23.5q-80 0 -126 53t-46 143 q0 102 59.5 205.5t155.5 169.5z" />
<glyph unicode="&#x201d;" horiz-adv-x="999" d="M705 731l-156 64q61 49 99 112.5t36 124.5q0 39 -38 90.5t-36 96.5q4 84 121 84q86 0 137.5 -52.5t51.5 -140.5q0 -143 -97 -268q-36 -48 -118 -111zM301 727l-156 61q129 137 129 240q0 39 -37.5 91t-37.5 89q0 41 34.5 66.5t90.5 25.5q84 0 135 -53t51 -141 q0 -125 -86 -254q-8 -12 -15.5 -21.5t-16.5 -19.5l-14 -16q-5 -6 -18.5 -17.5t-16.5 -14.5t-20.5 -17.5t-21.5 -18.5z" />
<glyph unicode="&#x201e;" horiz-adv-x="999" d="M670 -272l-158 63q63 47 100 110.5t37 127.5q0 37 -38 93t-38 91q0 39 33 62.5t90 23.5q84 0 136.5 -53t52.5 -142q0 -111 -42 -192.5t-173 -183.5zM266 -276l-155 61q127 135 127 240q0 35 -37 88t-37 90q0 43 33.5 68.5t91.5 25.5q84 0 134 -54.5t50 -142.5 q0 -109 -43 -191.5t-164 -184.5z" />
<glyph unicode="&#x2022;" horiz-adv-x="557" d="M541 682q0 -90 -64.5 -153.5t-154.5 -63.5q-88 0 -150.5 63.5t-62.5 153.5t62 155.5t151 65.5q90 0 154.5 -64.5t64.5 -156.5z" />
<glyph unicode="&#x2026;" horiz-adv-x="1142" d="M709 119q0 -57 -40 -96t-97.5 -39t-98.5 39.5t-41 97.5q0 59 41 100t98.5 41t97.5 -42t40 -101zM317 119q0 -55 -39.5 -95t-97 -40t-98.5 38.5t-41 96.5q-2 59 40 101t99.5 42t97 -42t39.5 -101zM1100 120.5q0 -57.5 -41 -98t-98.5 -40.5t-97.5 39.5t-40 97.5 q0 59 41 100t98.5 41t97.5 -41t40 -98.5z" />
<glyph unicode="&#x202f;" horiz-adv-x="354" />
<glyph unicode="&#x2039;" horiz-adv-x="628" d="M334 807h252l-211 -348l174 -350h-246l-190 354z" />
<glyph unicode="&#x203a;" horiz-adv-x="628" d="M365 807l217 -344l-187 -357h-243l172 355l-211 346h252z" />
<glyph unicode="&#x205f;" horiz-adv-x="442" />
<glyph unicode="&#x20ac;" d="M901 584l-33 -156h-419q6 -78 52 -143.5t126 -65.5q115 0 247 111l138 -180q-178 -174 -426 -175q-178 0 -289 119t-133 334h-133l32 156h97v43l6 57h-119l31 154h112q53 217 180.5 336.5t307.5 119.5q141 0 228 -52t145 -157l-174 -145q-59 113 -193 113 q-147 0 -209 -215h496l-31 -154h-494q-4 -33 -4 -49q-2 -18 -2 -51h461z" />
<glyph unicode="&#x2122;" horiz-adv-x="862" d="M850 1239v-412h-59v373l-136 -373h-37l-122 377v-377h-60v412h113l92 -293l100 293h109zM219 1190h-125v49h314v-49h-123v-363h-66v363z" />
<glyph unicode="&#xe000;" horiz-adv-x="900" d="M0 900h900v-900h-900v900z" />
<glyph unicode="&#xfb01;" horiz-adv-x="1239" d="M86 901h168q0 301 105.5 412.5t338.5 111.5q186 0 338 -106l-10 -238q-154 121 -295 123q-49 0 -77.5 -7t-61.5 -33.5t-48.5 -92t-15.5 -170.5h213l-12 -194h-207l-10 -281q-18 -518 -121.5 -710.5t-388.5 -192.5q-100 0 -207 22l19 207q74 -14 129 -14q61 0 108 21.5 t78 68.5t51.5 102.5t31.5 141.5t16 163.5t10 192.5l8 279h-170zM1065 0h-266l59 901h264z" />
<glyph unicode="&#xfb02;" horiz-adv-x="1277" d="M915 1339l5 66h268l-88 -1405h-275l74 1114q-96 86 -180 86q-86 0 -141.5 -78t-55.5 -221h217l-14 -194h-207l-8 -301q-12 -459 -128 -671t-374 -212q-102 0 -209 22l13 197q88 -14 118 -14q84 0 144.5 53t90.5 126t47 174t21.5 169.5t6.5 140.5v23l6 293h-172l12 194 h168q0 219 104.5 366.5t284.5 147.5q133 0 272 -76z" />
<glyph unicode="&#xfb03;" horiz-adv-x="1923" d="M516 707l-24 -426q-12 -199 -36 -333t-60 -220t-96 -132.5t-129 -62.5t-175 -16q-98 0 -197 28l17 193q76 -16 123 -17q59 0 99 9.5t70.5 39t48 64.5t31 110.5t19.5 148.5t14 204l25 410h-170l12 194h166q8 287 109.5 404.5t336.5 117.5q109 0 213 -37l-39 -208 q-68 33 -141 32q-111 0 -157 -69.5t-50 -239.5h412q0 301 105.5 412.5t338.5 111.5q186 0 338 -106l-10 -238q-154 121 -295 123q-49 0 -77.5 -7t-61.5 -33.5t-48.5 -92t-15.5 -170.5h213l-12 -194h-207l-10 -281q-18 -518 -121.5 -710.5t-388.5 -192.5q-100 0 -207 22 l19 207q74 -14 129 -14q61 0 108 21.5t78 68.5t51.5 102.5t31.5 141.5t16.5 163.5t9.5 192.5l8 279h-414zM1749 0h-266l59 901h264z" />
<glyph unicode="&#xfb04;" horiz-adv-x="1964" d="M516 707l-24 -426q-12 -199 -36 -333t-60 -220t-96 -132.5t-129 -62.5t-175 -16q-98 0 -197 28l17 193q76 -16 123 -17q59 0 99 9.5t70.5 39t48 64.5t31 110.5t19.5 148.5t14 204l25 410h-170l12 194h166q8 287 109.5 404.5t336.5 117.5q109 0 213 -37l-39 -208 q-68 33 -141 32q-111 0 -157 -69.5t-50 -239.5h414q0 219 104.5 366.5t284.5 147.5q133 0 273 -76l4 66h268l-88 -1405h-275l74 1114q-94 86 -180 86t-141.5 -78t-55.5 -221h217l-14 -194h-207l-8 -301q-12 -459 -128 -671t-374 -212q-102 0 -209 22l13 197q88 -14 118 -14 q84 0 144.5 53t90.5 126t47 174t21.5 169.5t6.5 140.5v23l6 293h-416z" />
</font>
</defs>
</svg>
